<svg id="Layer_1" enable-background="new 0 0 512 512" height="512" viewBox="0 0 512 512" width="512" xmlns="http://www.w3.org/2000/svg"><g><path d="m511.494 430.583c-11.091-38.084-32.274-122.083-43.78-186.25-13.707-76.439-55.386-121.965-67.314-133.672-1.403-1.378-.811-3.748 1.073-4.313l11.993-3.598c2-.6 2.503-3.209.867-4.507-70.144-55.683-169.852-42.104-194.007-37.765-2.147.386-3.78-1.89-2.72-3.797l1.704-3.067c1.053-1.895-.561-4.171-2.698-3.808-91.929 15.615-131.953 80.526-131.953 80.526v5.762l58.312 77.263 24.467 13.65-20.604 25.754.503 10.958c11.361 42.87-18.802 122.491-39.888 162.838-2.847 5.657-.954 12.617 4.459 15.906 20.757 12.613 51.082 17.178 65.292 18.692 3.659.389 6.516-3.107 5.406-6.615-1.003-3.168-2.169-7.041-3.466-11.518-1.197-4.13 2.222-8.145 6.489-7.613 1.401.175 2.795.216 4.414 1.569 20.117 16.827 56.919 22.462 73.023 24.177 3.656.389 6.515-3.109 5.405-6.614-1.003-3.168-2.169-7.042-3.466-11.519-1.197-4.13 2.222-8.145 6.489-7.613 1.4.174 2.795.215 4.413 1.569 20.117 16.827 56.92 22.462 73.024 24.177 3.658.389 6.515-3.104 5.405-6.611-.938-2.963-2.018-6.542-3.216-10.655-1.266-4.347 2.557-8.477 6.987-7.539 1.048.222 2.137.386 3.454 1.499 20.071 16.965 57.075 22.633 73.235 24.354 3.663.39 6.513-3.111 5.401-6.624-1.586-5.011-3.578-11.782-5.857-19.916-1.571-5.607 4.814-9.53 9.398-6.72 16.161 9.909 38.229 14.891 53.947 17.329 8.968 1.392 16.347-6.977 13.809-15.689z" fill="#ecf4ff"/><path d="m355.531 436.372c-9.881-39.418-20.771-86.957-27.922-126.839-13.707-76.439-55.386-121.965-67.314-133.672-1.403-1.378-.811-3.748 1.073-4.313l11.993-3.598c2-.6 2.503-3.209.867-4.507-63.563-50.459-151.404-44.041-185.3-39.165-2.871 3.786-4.269 6.053-4.269 6.053v5.762l58.312 77.263 24.467 13.65-20.604 25.754.503 10.958c11.361 42.87-18.802 122.491-39.888 162.838-2.847 5.657-.954 12.617 4.459 15.906 20.757 12.613 51.082 17.178 65.292 18.692 3.659.389 6.516-3.107 5.406-6.615-1.003-3.168-2.169-7.041-3.466-11.518-1.197-4.13 2.222-8.145 6.489-7.613 1.401.175 2.795.216 4.414 1.569 20.117 16.827 56.919 22.462 73.023 24.177 3.656.389 6.515-3.109 5.405-6.614-1.003-3.168-2.169-7.042-3.466-11.519-1.197-4.13 2.222-8.145 6.489-7.613 1.4.174 2.795.215 4.413 1.569 20.117 16.827 56.92 22.462 73.024 24.177 3.658.389 6.515-3.104 5.405-6.611-.938-2.963-2.018-6.542-3.216-10.655-1.009-3.465 1.221-6.785 4.411-7.516z" fill="#cbe2ff"/><path d="m231.18 119.488c-4.071-4.889-11.181-5.928-16.572-2.549l-23.212 14.549.83 2.996 17.771 14.358-6.567 20.861.126 3.257c.161.013.317.037.478.048 15.496 1.007 29.805-9.324 33.665-24.364 2.771-10.806-.091-21.437-6.519-29.156z" fill="#a79da9"/><g><path d="m150.977 168.279c-2.419-3.515-1.531-8.326 1.984-10.745l26.461-18.211c3.515-2.42 8.326-1.531 10.745 1.984s1.531 8.326-1.984 10.745l-26.461 18.211c-3.511 2.417-8.324 1.534-10.745-1.984z" fill="#a79da9"/></g><path d="m213.342 154.251c0-12.303-9.752-22.322-21.946-22.763l-10.154 6.365c-5.453 3.418-7.546 10.359-4.851 16.204 4.761 10.322 14.802 17.924 27.164 18.904 5.914-4.116 9.787-10.959 9.787-18.71z" fill="#7b6c79"/><path d="m174.939 224.518s-64.676-10.216-122.366 16.054l-1.846 4.807c.085-.008 67.297-6.26 96.61 18.342l30.553-38.061z" fill="#ffe07d"/><path d="m152.383 208.884c-7.704-5.066-13.741-12.346-17.088-20.937-14.931-38.323-50.636-57.615-50.636-57.615-99.6 31.109-89.015 107.035-77.401 143.238 2.008 6.259 10.55 6.884 13.478.998 29.541-59.397 157.156-48.909 157.156-48.909z" fill="#fff0af"/><path d="m105.262 145.573c-11.183-10.14-20.603-15.241-20.603-15.241-99.6 31.109-89.015 107.035-77.401 143.238 2.008 6.259 10.55 6.884 13.478.998 1.786-3.59 3.937-6.92 6.389-10.017-6.256-38.404.791-92.774 78.137-118.978z" fill="#ffe07d"/><g><path d="m85.349 187.802-14.937-7.857c-3.777-1.986-5.228-6.658-3.241-10.435 1.986-3.778 6.659-5.227 10.435-3.241l14.937 7.857c3.777 1.986 5.228 6.658 3.241 10.435s-6.66 5.227-10.435 3.241z" fill="#ffd064"/></g></g></svg>